<svg width="56" height="56" viewBox="0 0 56 56" fill="none" xmlns="http://www.w3.org/2000/svg">
<path d="M28 0L34.7008 0.813629L41.0122 3.20723L46.5674 7.0417L51.0435 12.0942L54.1805 18.0711L55.7958 24.625V31.375L54.1805 37.9289L51.0435 43.9058L46.5674 48.9583L41.0122 52.7928L34.7008 55.1864L28 56L21.2992 55.1864L14.9878 52.7928L9.43257 48.9583L4.95645 43.9058L1.81955 37.9289L0.204151 31.375V24.625L1.81955 18.0711L4.95645 12.0942L9.43257 7.0417L14.9878 3.20723L21.2992 0.813629L28 0Z" fill="#1E222B"/>
<path fill-rule="evenodd" clip-rule="evenodd" d="M30.7248 19.4299C29.2441 17.8567 26.7439 17.8567 25.2633 19.4299L20.2692 24.7361C19.6146 25.4317 19.25 26.3509 19.25 27.3062V33.2981C19.25 35.2783 20.7897 36.9173 22.7661 37.0408L28 37.3679L33.2322 37.0409C35.2095 36.9173 36.7495 35.2771 36.7483 33.296L36.7447 27.311C36.7442 26.3565 36.3797 25.4382 35.7255 24.7431L30.7248 19.4299ZM27.8692 29.0769C27.9494 29.0276 28.0506 29.0276 28.1308 29.0769L30.1308 30.3049C30.2049 30.3504 30.25 30.4311 30.25 30.518V33.1164C30.25 33.5307 30.5858 33.8664 31 33.8664C31.4142 33.8664 31.75 33.5307 31.75 33.1164V30.518C31.75 29.9097 31.4341 29.345 30.9157 29.0267L28.9157 27.7986C28.354 27.4537 27.646 27.4537 27.0843 27.7986L25.0843 29.0267C24.5659 29.345 24.25 29.9097 24.25 30.518V33.1164C24.25 33.5307 24.5858 33.8664 25 33.8664C25.4142 33.8664 25.75 33.5307 25.75 33.1164V30.518C25.75 30.4311 25.7951 30.3504 25.8692 30.3049L27.8692 29.0769Z" fill="#E0B420"/>
</svg>
